{"title":"Doc.Martin.2001.DVDRip.XviD-NoGrp","uid":8858146,"size":921113368,"categoryP":"video","categoryS":"movies","magnet":"?xt=urn:btih:a8818c7b633718930582cb71ab367678f582b560&amp;dn=Doc.Martin.2001.DVDRip.XviD-NoGrp&amp;tr=udp%3A%2F%2Ftracker.openbittorrent.com%3A80&amp;tr=udp%3A%2F%2Fopen.demonii.com%3A1337&amp;tr=udp%3A%2F%2Ftracker.coppersurfer.tk%3A6969&amp;tr=udp%3A%2F%2Fexodus.desync.com%3A6969","seeders":0,"leechers":1,"uploader":"th3d4m4g3r","files":-1,"time":1377709255,"description":"My connection is slow. Please be patient. Please seed to a least 1.5 ratio so others can enjoy the show too. Thank You.\n\nNot my rip.\nAR is a bit off.\n\n-----------------------------------------------------\n\nMediaInfo:\n\nGeneral\nComplete name : Doc.Martin.2001.DVDRip.XviD-NoGrp.avi\nFormat : AVI\nFile size : 878 MiB\nDuration : 1h 25mn\nOverall bit rate : 1 431 Kbps\n\nVideo\nFormat : MPEG-4 Visual\nFormat profile : Advanced Simple@L5\nFormat settings, BVOP : No\nFormat settings, QPel : No\nFormat settings, GMC : No warppoints\nFormat settings, Matrix : Default (MPEG)\nCodec ID : XVID\nBit rate : 1 229 Kbps\nWidth : 608 pixels\nHeight : 368 pixels\nDisplay aspect ratio : 1.652\nFrame rate : 25.000 fps\nColor space : YUV\nChroma subsampling : 4:2:0\nBit depth : 8 bits\nScan type : Progressive\nBits/(Pixel*Frame) : 0.220\nStream size : 755 MiB (86%)\n\nAudio\nFormat : AC-3\nBit rate mode : Constant\nBit rate : 192 Kbps\nChannel(s) : 2 channels\nChannel positions : Front: L R\nSampling rate : 48.0 KHz\nBit depth : 16 bits\nStream size : 118 MiB (13%)","torrent":{"xt":"urn:btih:a8818c7b633718930582cb71ab367678f582b560","amp;dn":"Doc.Martin.2001.DVDRip.XviD-NoGrp","amp;tr":["udp%3A%2F%2Ftracker.openbittorrent.com%3A80","udp%3A%2F%2Fopen.demonii.com%3A1337","udp%3A%2F%2Ftracker.coppersurfer.tk%3A6969","udp%3A%2F%2Fexodus.desync.com%3A6969"],"infoHash":"a8818c7b633718930582cb71ab367678f582b560","infoHashBuffer":{"type":"Buffer","data":[168,129,140,123,99,55,24,147,5,130,203,113,171,54,118,120,245,130,181,96]},"announce":[],"urlList":[]}}